Coordinates
version=1
nRows=24
nColumns=17
inDegrees=yes

Units are S.I. units (second, meters, Newtons, ...)
If the header above contains a line with 'inDegrees', this indicates whether rotational values are in degrees (yes) or radians (no).

endheader
time	pelvis_tilt	pelvis_tx	pelvis_ty	hip_flexion_l	hip_flexion_r	knee_angle_l	knee_angle_r	ankle_angle_l	ankle_angle_r	lumbar_extension	FC_flexion	FC_adduction	FC_rotation	FC_tx	FC_ty	FC_tz
      5.59000000	     98.61801092	     -0.31766329	      1.04004549	     -7.03695279	      3.35413038	     -5.57641288	    -10.48990367	    -35.16892012	     12.95742201	    -23.50916642	     81.66694686	     46.15222540	     96.22834752	      0.05342790	     -0.01685461	     -0.17384438
      5.60000000	     98.43372910	     -0.31755766	      1.03996356	     -7.00152297	      3.59046329	     -5.25625733	    -10.53739545	    -35.35981787	     15.58762217	    -23.30849735	     79.17327747	     46.15824548	     96.21125751	      0.04895431	     -0.02376967	     -0.17379304
      5.61000000	     98.59934717	     -0.31768550	      1.03999366	     -7.10326128	      3.38969281	     -5.40820263	    -10.50667621	    -35.38538521	     14.33329357	    -23.50207760	     80.54190442	     46.15627418	     96.20952005	      0.05148345	     -0.02016254	     -0.17377012
      5.62000000	     98.53362022	     -0.31763130	      1.03998462	     -7.08833692	      3.47627806	     -5.30495189	    -10.52110197	    -35.32286943	     14.59944169	    -23.42395696	     80.39495169	     46.17569767	     96.19357418	      0.05109721	     -0.02069629	     -0.17372917
      5.63000000	     98.63257781	     -0.31767792	      1.04002276	     -7.14749985	      3.35156505	     -5.40527632	    -10.49692071	    -35.28968962	     13.26574614	    -23.52970858	     81.81953386	     46.17599754	     96.20569818	      0.05360991	     -0.01683987	     -0.17377669
      5.64000000	     98.56973275	     -0.31766339	      1.04002225	     -7.10809084	      3.42498788	     -5.37927413	    -10.49841111	    -35.13512931	     13.34668117	    -23.45539849	     81.80558389	     46.19430166	     96.23435863	      0.05357874	     -0.01689644	     -0.17371261
      5.65000000	     98.59003701	     -0.31768124	      1.04003168	     -7.04248449	      3.42023335	     -5.49444539	    -10.52915546	    -35.29872220	     13.44607344	    -23.47788104	     81.78839714	     46.21375166	     96.26481939	      0.05356246	     -0.01690051	     -0.17372684
      5.66000000	     98.58362906	     -0.31771789	      1.04001891	     -7.03477639	      3.41740062	     -5.49192450	    -10.50610013	    -35.30260560	     13.47553780	    -23.47838409	     81.81031170	     46.23129610	     96.29866139	      0.05364938	     -0.01681024	     -0.17374181
      5.67000000	     98.57082075	     -0.31770757	      1.04001321	     -7.06916567	      3.42437919	     -5.44658595	    -10.48912466	    -35.13165288	     13.61019063	    -23.46366155	     81.75147628	     46.24850789	     96.30862430	      0.05346185	     -0.01698373	     -0.17373910
      5.68000000	     98.58302347	     -0.31772641	      1.04000906	     -7.07074343	      3.43050877	     -5.46039034	    -10.53195090	    -35.13912911	     13.64142064	    -23.46861934	     81.78204393	     46.26970250	     96.35684988	      0.05365258	     -0.01679443	     -0.17377834
      5.69000000	     98.66935541	     -0.31771915	      1.04009735	     -7.04379429	      3.29962880	     -5.65496622	    -10.48992460	    -35.27354042	     13.77297530	    -23.55519852	     81.73663207	     46.27929494	     96.35830457	      0.05367238	     -0.01687240	     -0.17385600
      5.70000000	     98.66497472	     -0.31777103	      1.04009277	     -7.03643640	      3.29991192	     -5.65078410	    -10.48196544	    -35.27084357	     13.80677616	    -23.56001548	     81.76442663	     46.30741727	     96.40290978	      0.05372972	     -0.01695330	     -0.17392160
      5.71000000	     98.63846451	     -0.31771323	      1.04002520	     -7.05968408	      3.33552991	     -5.60118539	    -10.48251923	    -35.13303307	     13.87281166	    -23.53309968	     81.67182798	     46.32190673	     96.47814672	      0.05362986	     -0.01688616	     -0.17401260
      5.72000000	     98.67125911	     -0.31776817	      1.04008254	     -7.02551124	      3.29048719	     -5.69081948	    -10.47841000	    -35.27117699	     14.01828126	    -23.56884821	     81.59038616	     46.35466573	     96.49773781	      0.05355541	     -0.01711046	     -0.17406283
      5.73000000	     98.65861759	     -0.31779526	      1.04006757	     -7.01923417	      3.31302381	     -5.67607902	    -10.49259937	    -35.27034571	     14.01911172	    -23.56087829	     81.56299499	     46.40308578	     96.55773590	      0.05368999	     -0.01680504	     -0.17413479
      5.74000000	     98.65582286	     -0.31778452	      1.04001062	     -7.01361980	      3.31156190	     -5.67342394	    -10.48480618	    -35.27033195	     14.04243112	    -23.56444951	     81.57916746	     46.41163374	     96.57664158	      0.05377557	     -0.01667333	     -0.17428060
      5.75000000	     98.65028727	     -0.31783515	      1.04007893	     -7.01013650	      3.31462776	     -5.67120000	    -10.49281053	    -35.27004345	     14.13935811	    -23.54692112	     81.62869099	     46.44506960	     96.53552260	      0.05367865	     -0.01692274	     -0.17438962
      5.76000000	     98.64274581	     -0.31775202	      1.04001234	     -7.09920428	      3.33310501	     -5.51025560	    -10.51275029	    -35.19075420	     14.30028566	    -23.54389729	     81.57635720	     46.46809069	     96.49372937	      0.05354920	     -0.01712254	     -0.17449050
      5.77000000	     98.64721152	     -0.31780311	      1.04007302	     -7.10051998	      3.31798768	     -5.51907447	    -10.50578258	    -35.20539296	     14.36553279	    -23.53313078	     81.61386160	     46.49863309	     96.45286638	      0.05356202	     -0.01715162	     -0.17460971
      5.78000000	     98.64730261	     -0.31779503	      1.04006627	     -7.09917356	      3.31785878	     -5.51895095	    -10.50356023	    -35.20727080	     14.37013825	    -23.53643819	     81.61347279	     46.53493521	     96.45029992	      0.05361203	     -0.01682037	     -0.17471574
      5.79000000	     98.64684603	     -0.31784657	      1.04004343	     -7.09560330	      3.32554052	     -5.51777750	    -10.51542186	    -35.22564578	     14.41787250	    -23.55051717	     81.63997116	     46.57543316	     96.44929040	      0.05362584	     -0.01684233	     -0.17489296
      5.80000000	     98.64604187	     -0.31785679	      1.04005092	     -7.10323823	      3.32440852	     -5.51203477	    -10.51549608	    -35.23068320	     14.49202488	    -23.53785884	     81.68127816	     46.64055915	     96.45213892	      0.05358270	     -0.01700673	     -0.17506187
      5.81000000	     98.64550267	     -0.31785462	      1.04005266	     -7.10403675	      3.32171324	     -5.50963195	    -10.50608000	    -35.23089701	     14.52225479	    -23.53981962	     81.69275399	     46.66989461	     96.48652860	      0.05365451	     -0.01690624	     -0.17512748
      5.82000000	     98.64190402	     -0.31789535	      1.04003757	     -7.14750202	      3.33789439	     -5.42088371	    -10.52528520	    -35.27096650	     14.76218446	    -23.54114453	     81.36874508	     46.71244899	     96.61433771	      0.05339603	     -0.01712915	     -0.17518961
